<svg width="76" height="102" viewBox="0 0 76 102" fill="none" xmlns="http://www.w3.org/2000/svg">
<mask id="path-1-outside-1_86_9234" maskUnits="userSpaceOnUse" x="-15.6405" y="-16.4062" width="124.616" height="130.192" fill="black">
<rect fill="white" x="-15.6405" y="-16.4062" width="124.616" height="130.192"/>
<path d="M71.3677 6.36762C63.8175 3.00673 55.5381 1.61612 47.3042 2.32589C39.0704 3.03566 31.1511 5.82262 24.2875 10.426C17.4238 15.0294 11.8401 21.2987 8.0589 28.6473C4.27764 35.996 2.42241 44.1838 2.66678 52.4446C2.91116 60.7054 5.24715 68.7692 9.45619 75.8814C13.6652 82.9937 19.6097 88.922 26.7335 93.1116C33.8573 97.3012 41.9274 99.6151 50.1888 99.8369C58.4503 100.059 66.633 98.1811 73.9713 94.3798L70.9788 88.6031C64.6178 91.8982 57.5247 93.5257 50.3634 93.3335C43.2022 93.1412 36.2067 91.1354 30.0316 87.5037C23.8565 83.8721 18.7036 78.7332 15.055 72.5681C11.4065 66.4029 9.38157 59.4129 9.16974 52.2522C8.95791 45.0914 10.5661 37.994 13.8438 31.6239C17.1215 25.2539 21.9616 19.8194 27.9113 15.8291C33.8609 11.8387 40.7256 9.4229 47.863 8.80765C55.0004 8.1924 62.1772 9.39783 68.7219 12.3112L71.3677 6.36762Z"/>
</mask>
<path d="M71.3677 6.36762C63.8175 3.00673 55.5381 1.61612 47.3042 2.32589C39.0704 3.03566 31.1511 5.82262 24.2875 10.426C17.4238 15.0294 11.8401 21.2987 8.0589 28.6473C4.27764 35.996 2.42241 44.1838 2.66678 52.4446C2.91116 60.7054 5.24715 68.7692 9.45619 75.8814C13.6652 82.9937 19.6097 88.922 26.7335 93.1116C33.8573 97.3012 41.9274 99.6151 50.1888 99.8369C58.4503 100.059 66.633 98.1811 73.9713 94.3798L70.9788 88.6031C64.6178 91.8982 57.5247 93.5257 50.3634 93.3335C43.2022 93.1412 36.2067 91.1354 30.0316 87.5037C23.8565 83.8721 18.7036 78.7332 15.055 72.5681C11.4065 66.4029 9.38157 59.4129 9.16974 52.2522C8.95791 45.0914 10.5661 37.994 13.8438 31.6239C17.1215 25.2539 21.9616 19.8194 27.9113 15.8291C33.8609 11.8387 40.7256 9.4229 47.863 8.80765C55.0004 8.1924 62.1772 9.39783 68.7219 12.3112L71.3677 6.36762Z" stroke="white" stroke-width="3.90837" stroke-linejoin="round" mask="url(#path-1-outside-1_86_9234)"/>
</svg>
