<svg width="670" height="20" viewBox="0 0 670 20" fill="none" xmlns="http://www.w3.org/2000/svg">
<path d="M2.94 12.69L2.842 10.534L7.98 5.2H10.024L5.754 9.736L4.746 10.842L2.94 12.69ZM1.316 15V5.2H3.136V15H1.316ZM8.148 15L4.396 10.534L5.6 9.204L10.276 15H8.148ZM14.5331 15.098C13.7024 15.098 12.9744 14.9347 12.3491 14.608C11.7331 14.272 11.2524 13.8147 10.9071 13.236C10.5711 12.6573 10.4031 11.9993 10.4031 11.262C10.4031 10.5153 10.5664 9.85733 10.8931 9.288C11.2291 8.70933 11.6864 8.25667 12.2651 7.93C12.8531 7.60333 13.5204 7.44 14.2671 7.44C14.9951 7.44 15.6438 7.59867 16.2131 7.916C16.7824 8.23333 17.2304 8.68133 17.5571 9.26C17.8838 9.83867 18.0471 10.52 18.0471 11.304C18.0471 11.3787 18.0424 11.4627 18.0331 11.556C18.0331 11.6493 18.0284 11.738 18.0191 11.822H11.7891V10.66H17.0951L16.4091 11.024C16.4184 10.5947 16.3298 10.2167 16.1431 9.89C15.9564 9.56333 15.6998 9.30667 15.3731 9.12C15.0558 8.93333 14.6871 8.84 14.2671 8.84C13.8378 8.84 13.4598 8.93333 13.1331 9.12C12.8158 9.30667 12.5638 9.568 12.3771 9.904C12.1998 10.2307 12.1111 10.618 12.1111 11.066V11.346C12.1111 11.794 12.2138 12.1907 12.4191 12.536C12.6244 12.8813 12.9138 13.1473 13.2871 13.334C13.6604 13.5207 14.0898 13.614 14.5751 13.614C14.9951 13.614 15.3731 13.5487 15.7091 13.418C16.0451 13.2873 16.3438 13.082 16.6051 12.802L17.5431 13.88C17.2071 14.272 16.7824 14.5753 16.2691 14.79C15.7651 14.9953 15.1864 15.098 14.5331 15.098ZM20.2074 17.814C19.8434 17.814 19.4794 17.7533 19.1154 17.632C18.7514 17.5107 18.448 17.3427 18.2054 17.128L18.9054 15.84C19.0827 15.9987 19.2834 16.1247 19.5074 16.218C19.7314 16.3113 19.96 16.358 20.1934 16.358C20.5107 16.358 20.7674 16.2787 20.9634 16.12C21.1594 15.9613 21.3414 15.6953 21.5094 15.322L21.9434 14.342L22.0834 14.132L24.9114 7.524H26.5914L23.0914 15.602C22.858 16.162 22.5967 16.6053 22.3074 16.932C22.0274 17.2587 21.71 17.4873 21.3554 17.618C21.01 17.7487 20.6274 17.814 20.2074 17.814ZM21.7474 15.266L18.3734 7.524H20.1934L22.9374 13.978L21.7474 15.266ZM29.8994 15.098C29.2741 15.098 28.6721 15.0187 28.0934 14.86C27.5241 14.692 27.0714 14.4913 26.7354 14.258L27.4074 12.928C27.7434 13.1427 28.1447 13.32 28.6114 13.46C29.0781 13.6 29.5447 13.67 30.0114 13.67C30.5621 13.67 30.9587 13.5953 31.2014 13.446C31.4534 13.2967 31.5794 13.096 31.5794 12.844C31.5794 12.6387 31.4954 12.4847 31.3274 12.382C31.1594 12.27 30.9401 12.186 30.6694 12.13C30.3987 12.074 30.0954 12.0227 29.7594 11.976C29.4327 11.9293 29.1014 11.8687 28.7654 11.794C28.4387 11.71 28.1401 11.5933 27.8694 11.444C27.5987 11.2853 27.3794 11.0753 27.2114 10.814C27.0434 10.5527 26.9594 10.2073 26.9594 9.778C26.9594 9.302 27.0947 8.89133 27.3654 8.546C27.6361 8.19133 28.0141 7.92067 28.4994 7.734C28.9941 7.538 29.5774 7.44 30.2494 7.44C30.7534 7.44 31.2621 7.496 31.7754 7.608C32.2887 7.72 32.7134 7.87867 33.0494 8.084L32.3774 9.414C32.0227 9.19933 31.6634 9.05467 31.2994 8.98C30.9447 8.896 30.5901 8.854 30.2354 8.854C29.7034 8.854 29.3067 8.93333 29.0454 9.092C28.7934 9.25067 28.6674 9.45133 28.6674 9.694C28.6674 9.918 28.7514 10.086 28.9194 10.198C29.0874 10.31 29.3067 10.3987 29.5774 10.464C29.8481 10.5293 30.1467 10.5853 30.4734 10.632C30.8094 10.6693 31.1407 10.73 31.4674 10.814C31.7941 10.898 32.0927 11.0147 32.3634 11.164C32.6434 11.304 32.8674 11.5047 33.0354 11.766C33.2034 12.0273 33.2874 12.368 33.2874 12.788C33.2874 13.2547 33.1474 13.6607 32.8674 14.006C32.5967 14.3513 32.2094 14.622 31.7054 14.818C31.2014 15.0047 30.5994 15.098 29.8994 15.098Z" fill="#1B1F25"/>
<path d="M83.368 14V5.6H84.256V14H83.368ZM90.0251 7.64C90.5371 7.64 90.9851 7.74 91.3691 7.94C91.7611 8.132 92.0651 8.428 92.2811 8.828C92.5051 9.228 92.6171 9.732 92.6171 10.34V14H91.7651V10.424C91.7651 9.76 91.5971 9.26 91.2611 8.924C90.9331 8.58 90.4691 8.408 89.8691 8.408C89.4211 8.408 89.0291 8.5 88.6931 8.684C88.3651 8.86 88.1091 9.12 87.9251 9.464C87.7491 9.8 87.6611 10.208 87.6611 10.688V14H86.8091V7.7H87.6251V9.428L87.4931 9.104C87.6931 8.648 88.0131 8.292 88.4531 8.036C88.8931 7.772 89.4171 7.64 90.0251 7.64ZM96.4213 14L93.6253 7.7H94.5133L97.0813 13.544H96.6613L99.2653 7.7H100.105L97.2973 14H96.4213ZM100.979 14.06C100.803 14.06 100.651 13.996 100.523 13.868C100.403 13.74 100.343 13.584 100.343 13.4C100.343 13.208 100.403 13.052 100.523 12.932C100.651 12.812 100.803 12.752 100.979 12.752C101.155 12.752 101.303 12.812 101.423 12.932C101.551 13.052 101.615 13.208 101.615 13.4C101.615 13.584 101.551 13.74 101.423 13.868C101.303 13.996 101.155 14.06 100.979 14.06ZM107.551 9.356H111.991V10.112H107.551V9.356ZM107.647 13.232H112.699V14H106.759V5.6H112.519V6.368H107.647V13.232ZM117.02 14.06C116.42 14.06 115.88 13.924 115.4 13.652C114.928 13.38 114.556 13.004 114.284 12.524C114.012 12.044 113.876 11.484 113.876 10.844C113.876 10.212 114.012 9.656 114.284 9.176C114.556 8.688 114.928 8.312 115.4 8.048C115.88 7.776 116.42 7.64 117.02 7.64C117.58 7.64 118.076 7.764 118.508 8.012C118.948 8.26 119.296 8.624 119.552 9.104C119.808 9.576 119.936 10.156 119.936 10.844C119.936 11.532 119.804 12.116 119.54 12.596C119.284 13.068 118.936 13.432 118.496 13.688C118.064 13.936 117.572 14.06 117.02 14.06ZM117.08 13.304C117.528 13.304 117.928 13.204 118.28 13.004C118.64 12.796 118.92 12.508 119.12 12.14C119.328 11.764 119.432 11.332 119.432 10.844C119.432 10.356 119.328 9.928 119.12 9.56C118.92 9.192 118.64 8.904 118.28 8.696C117.928 8.488 117.528 8.384 117.08 8.384C116.64 8.384 116.244 8.488 115.892 8.696C115.54 8.904 115.26 9.192 115.052 9.56C114.844 9.928 114.74 10.356 114.74 10.844C114.74 11.332 114.844 11.764 115.052 12.14C115.26 12.508 115.54 12.796 115.892 13.004C116.244 13.204 116.64 13.304 117.08 13.304ZM119.42 16.328V12.128L119.54 10.856L119.456 9.596V7.7H120.272V16.328H119.42ZM125.249 14.06C124.713 14.06 124.245 13.96 123.845 13.76C123.445 13.56 123.133 13.26 122.909 12.86C122.693 12.46 122.585 11.96 122.585 11.36V7.7H123.437V11.264C123.437 11.936 123.601 12.444 123.929 12.788C124.265 13.124 124.733 13.292 125.333 13.292C125.773 13.292 126.153 13.204 126.473 13.028C126.801 12.844 127.049 12.58 127.217 12.236C127.393 11.892 127.481 11.48 127.481 11V7.7H128.333V14H127.517V12.272L127.649 12.584C127.449 13.048 127.137 13.412 126.713 13.676C126.297 13.932 125.809 14.06 125.249 14.06ZM134.656 14V12.608L134.62 12.38V10.052C134.62 9.516 134.468 9.104 134.164 8.816C133.868 8.528 133.424 8.384 132.832 8.384C132.424 8.384 132.036 8.452 131.668 8.588C131.3 8.724 130.988 8.904 130.732 9.128L130.348 8.492C130.668 8.22 131.052 8.012 131.5 7.868C131.948 7.716 132.42 7.64 132.916 7.64C133.732 7.64 134.36 7.844 134.8 8.252C135.248 8.652 135.472 9.264 135.472 10.088V14H134.656ZM132.484 14.06C132.012 14.06 131.6 13.984 131.248 13.832C130.904 13.672 130.64 13.456 130.456 13.184C130.272 12.904 130.18 12.584 130.18 12.224C130.18 11.896 130.256 11.6 130.408 11.336C130.568 11.064 130.824 10.848 131.176 10.688C131.536 10.52 132.016 10.436 132.616 10.436H134.788V11.072H132.64C132.032 11.072 131.608 11.18 131.368 11.396C131.136 11.612 131.02 11.88 131.02 12.2C131.02 12.56 131.16 12.848 131.44 13.064C131.72 13.28 132.112 13.388 132.616 13.388C133.096 13.388 133.508 13.28 133.852 13.064C134.204 12.84 134.46 12.52 134.62 12.104L134.812 12.692C134.652 13.108 134.372 13.44 133.972 13.688C133.58 13.936 133.084 14.06 132.484 14.06ZM137.786 14V5.096H138.638V14H137.786ZM146.717 14.06C146.109 14.06 145.561 13.924 145.073 13.652C144.593 13.372 144.213 12.992 143.933 12.512C143.653 12.024 143.513 11.468 143.513 10.844C143.513 10.212 143.653 9.656 143.933 9.176C144.213 8.696 144.593 8.32 145.073 8.048C145.553 7.776 146.101 7.64 146.717 7.64C147.341 7.64 147.893 7.776 148.373 8.048C148.861 8.32 149.241 8.696 149.513 9.176C149.793 9.656 149.933 10.212 149.933 10.844C149.933 11.468 149.793 12.024 149.513 12.512C149.241 12.992 148.861 13.372 148.373 13.652C147.885 13.924 147.333 14.06 146.717 14.06ZM146.717 13.304C147.173 13.304 147.577 13.204 147.929 13.004C148.281 12.796 148.557 12.508 148.757 12.14C148.965 11.764 149.069 11.332 149.069 10.844C149.069 10.348 148.965 9.916 148.757 9.548C148.557 9.18 148.281 8.896 147.929 8.696C147.577 8.488 147.177 8.384 146.729 8.384C146.281 8.384 145.881 8.488 145.529 8.696C145.177 8.896 144.897 9.18 144.689 9.548C144.481 9.916 144.377 10.348 144.377 10.844C144.377 11.332 144.481 11.764 144.689 12.14C144.897 12.508 145.177 12.796 145.529 13.004C145.881 13.204 146.277 13.304 146.717 13.304ZM151.672 14V7.7H152.488V9.416L152.404 9.116C152.58 8.636 152.876 8.272 153.292 8.024C153.708 7.768 154.224 7.64 154.84 7.64V8.468C154.808 8.468 154.776 8.468 154.744 8.468C154.712 8.46 154.68 8.456 154.648 8.456C153.984 8.456 153.464 8.66 153.088 9.068C152.712 9.468 152.524 10.04 152.524 10.784V14H151.672ZM159.809 14V5.6H163.433C164.369 5.6 165.093 5.788 165.605 6.164C166.125 6.54 166.385 7.072 166.385 7.76C166.385 8.216 166.277 8.6 166.061 8.912C165.853 9.224 165.565 9.46 165.197 9.62C164.837 9.78 164.441 9.86 164.009 9.86L164.213 9.572C164.749 9.572 165.209 9.656 165.593 9.824C165.985 9.984 166.289 10.228 166.505 10.556C166.721 10.876 166.829 11.276 166.829 11.756C166.829 12.468 166.565 13.02 166.037 13.412C165.517 13.804 164.729 14 163.673 14H159.809ZM160.697 13.268H163.661C164.397 13.268 164.961 13.144 165.353 12.896C165.745 12.64 165.941 12.236 165.941 11.684C165.941 11.14 165.745 10.744 165.353 10.496C164.961 10.24 164.397 10.112 163.661 10.112H160.601V9.38H163.373C164.045 9.38 164.565 9.252 164.933 8.996C165.309 8.74 165.497 8.36 165.497 7.856C165.497 7.344 165.309 6.964 164.933 6.716C164.565 6.46 164.045 6.332 163.373 6.332H160.697V13.268ZM171.352 14.06C170.696 14.06 170.12 13.924 169.624 13.652C169.128 13.372 168.74 12.992 168.46 12.512C168.18 12.024 168.04 11.468 168.04 10.844C168.04 10.22 168.172 9.668 168.436 9.188C168.708 8.708 169.076 8.332 169.54 8.06C170.012 7.78 170.54 7.64 171.124 7.64C171.716 7.64 172.24 7.776 172.696 8.048C173.16 8.312 173.524 8.688 173.788 9.176C174.052 9.656 174.184 10.212 174.184 10.844C174.184 10.884 174.18 10.928 174.172 10.976C174.172 11.016 174.172 11.06 174.172 11.108H168.688V10.472H173.716L173.38 10.724C173.38 10.268 173.28 9.864 173.08 9.512C172.888 9.152 172.624 8.872 172.288 8.672C171.952 8.472 171.564 8.372 171.124 8.372C170.692 8.372 170.304 8.472 169.96 8.672C169.616 8.872 169.348 9.152 169.156 9.512C168.964 9.872 168.868 10.284 168.868 10.748V10.88C168.868 11.36 168.972 11.784 169.18 12.152C169.396 12.512 169.692 12.796 170.068 13.004C170.452 13.204 170.888 13.304 171.376 13.304C171.76 13.304 172.116 13.236 172.444 13.1C172.78 12.964 173.068 12.756 173.308 12.476L173.788 13.028C173.508 13.364 173.156 13.62 172.732 13.796C172.316 13.972 171.856 14.06 171.352 14.06ZM175.918 14V5.096H176.77V14H175.918ZM181.709 14.06C181.101 14.06 180.553 13.924 180.065 13.652C179.585 13.372 179.205 12.992 178.925 12.512C178.645 12.024 178.505 11.468 178.505 10.844C178.505 10.212 178.645 9.656 178.925 9.176C179.205 8.696 179.585 8.32 180.065 8.048C180.545 7.776 181.093 7.64 181.709 7.64C182.333 7.64 182.885 7.776 183.365 8.048C183.853 8.32 184.233 8.696 184.505 9.176C184.785 9.656 184.925 10.212 184.925 10.844C184.925 11.468 184.785 12.024 184.505 12.512C184.233 12.992 183.853 13.372 183.365 13.652C182.877 13.924 182.325 14.06 181.709 14.06ZM181.709 13.304C182.165 13.304 182.569 13.204 182.921 13.004C183.273 12.796 183.549 12.508 183.749 12.14C183.957 11.764 184.061 11.332 184.061 10.844C184.061 10.348 183.957 9.916 183.749 9.548C183.549 9.18 183.273 8.896 182.921 8.696C182.569 8.488 182.169 8.384 181.721 8.384C181.273 8.384 180.873 8.488 180.521 8.696C180.169 8.896 179.889 9.18 179.681 9.548C179.473 9.916 179.369 10.348 179.369 10.844C179.369 11.332 179.473 11.764 179.681 12.14C179.889 12.508 180.169 12.796 180.521 13.004C180.873 13.204 181.269 13.304 181.709 13.304ZM187.773 14L185.397 7.7H186.213L188.373 13.544H188.001L190.221 7.7H190.953L193.149 13.544H192.777L194.973 7.7H195.753L193.365 14H192.561L190.449 8.504H190.701L188.577 14H187.773ZM202.96 14.072C202.312 14.072 201.736 13.904 201.232 13.568C200.728 13.224 200.332 12.736 200.044 12.104C199.756 11.464 199.612 10.696 199.612 9.8C199.612 8.904 199.756 8.14 200.044 7.508C200.332 6.868 200.728 6.38 201.232 6.044C201.736 5.7 202.312 5.528 202.96 5.528C203.608 5.528 204.184 5.7 204.688 6.044C205.192 6.38 205.588 6.868 205.876 7.508C206.172 8.14 206.32 8.904 206.32 9.8C206.32 10.696 206.172 11.464 205.876 12.104C205.588 12.736 205.192 13.224 204.688 13.568C204.184 13.904 203.608 14.072 202.96 14.072ZM202.96 13.28C203.456 13.28 203.888 13.148 204.256 12.884C204.624 12.612 204.912 12.22 205.12 11.708C205.328 11.188 205.432 10.552 205.432 9.8C205.432 9.048 205.328 8.416 205.12 7.904C204.912 7.384 204.624 6.992 204.256 6.728C203.888 6.456 203.456 6.32 202.96 6.32C202.48 6.32 202.052 6.456 201.676 6.728C201.3 6.992 201.008 7.384 200.8 7.904C200.592 8.416 200.488 9.048 200.488 9.8C200.488 10.552 200.592 11.188 200.8 11.708C201.008 12.22 201.3 12.612 201.676 12.884C202.052 13.148 202.48 13.28 202.96 13.28Z" fill="#1B1F25"/>
<rect x="61" y="4" width="13" height="13" fill="#E92431"/>
<path d="M241.368 14V5.6H242.256V14H241.368ZM248.025 7.64C248.537 7.64 248.985 7.74 249.369 7.94C249.761 8.132 250.065 8.428 250.281 8.828C250.505 9.228 250.617 9.732 250.617 10.34V14H249.765V10.424C249.765 9.76 249.597 9.26 249.261 8.924C248.933 8.58 248.469 8.408 247.869 8.408C247.421 8.408 247.029 8.5 246.693 8.684C246.365 8.86 246.109 9.12 245.925 9.464C245.749 9.8 245.661 10.208 245.661 10.688V14H244.809V7.7H245.625V9.428L245.493 9.104C245.693 8.648 246.013 8.292 246.453 8.036C246.893 7.772 247.417 7.64 248.025 7.64ZM254.421 14L251.625 7.7H252.513L255.081 13.544H254.661L257.265 7.7H258.105L255.297 14H254.421ZM258.979 14.06C258.803 14.06 258.651 13.996 258.523 13.868C258.403 13.74 258.343 13.584 258.343 13.4C258.343 13.208 258.403 13.052 258.523 12.932C258.651 12.812 258.803 12.752 258.979 12.752C259.155 12.752 259.303 12.812 259.423 12.932C259.551 13.052 259.615 13.208 259.615 13.4C259.615 13.584 259.551 13.74 259.423 13.868C259.303 13.996 259.155 14.06 258.979 14.06ZM267.363 14.072C266.715 14.072 266.139 13.904 265.635 13.568C265.131 13.224 264.735 12.736 264.447 12.104C264.159 11.464 264.015 10.696 264.015 9.8C264.015 8.904 264.159 8.14 264.447 7.508C264.735 6.868 265.131 6.38 265.635 6.044C266.139 5.7 266.715 5.528 267.363 5.528C268.011 5.528 268.587 5.7 269.091 6.044C269.595 6.38 269.991 6.868 270.279 7.508C270.575 8.14 270.723 8.904 270.723 9.8C270.723 10.696 270.575 11.464 270.279 12.104C269.991 12.736 269.595 13.224 269.091 13.568C268.587 13.904 268.011 14.072 267.363 14.072ZM267.363 13.28C267.859 13.28 268.291 13.148 268.659 12.884C269.027 12.612 269.315 12.22 269.523 11.708C269.731 11.188 269.835 10.552 269.835 9.8C269.835 9.048 269.731 8.416 269.523 7.904C269.315 7.384 269.027 6.992 268.659 6.728C268.291 6.456 267.859 6.32 267.363 6.32C266.883 6.32 266.455 6.456 266.079 6.728C265.703 6.992 265.411 7.384 265.203 7.904C264.995 8.416 264.891 9.048 264.891 9.8C264.891 10.552 264.995 11.188 265.203 11.708C265.411 12.22 265.703 12.612 266.079 12.884C266.455 13.148 266.883 13.28 267.363 13.28ZM272.15 11.12V10.376H275.294V11.12H272.15ZM277.38 14V5.6H278.112L281.952 12.152H281.568L285.372 5.6H286.104V14H285.252V6.932H285.456L281.952 12.932H281.532L278.004 6.932H278.232V14H277.38ZM288.661 14V7.7H289.513V14H288.661ZM289.093 6.308C288.917 6.308 288.769 6.248 288.649 6.128C288.529 6.008 288.469 5.864 288.469 5.696C288.469 5.528 288.529 5.388 288.649 5.276C288.769 5.156 288.917 5.096 289.093 5.096C289.269 5.096 289.417 5.152 289.537 5.264C289.657 5.376 289.717 5.516 289.717 5.684C289.717 5.86 289.657 6.008 289.537 6.128C289.425 6.248 289.277 6.308 289.093 6.308ZM295.099 7.64C295.611 7.64 296.059 7.74 296.443 7.94C296.835 8.132 297.139 8.428 297.355 8.828C297.579 9.228 297.691 9.732 297.691 10.34V14H296.839V10.424C296.839 9.76 296.671 9.26 296.335 8.924C296.007 8.58 295.543 8.408 294.943 8.408C294.495 8.408 294.103 8.5 293.767 8.684C293.439 8.86 293.183 9.12 292.999 9.464C292.823 9.8 292.735 10.208 292.735 10.688V14H291.883V7.7H292.699V9.428L292.567 9.104C292.767 8.648 293.087 8.292 293.527 8.036C293.967 7.772 294.491 7.64 295.099 7.64Z" fill="#1B1F25"/>
<rect x="219" y="4" width="13" height="13" fill="#FD5720"/>
<path d="M333.368 14V5.6H334.256V14H333.368ZM340.025 7.64C340.537 7.64 340.985 7.74 341.369 7.94C341.761 8.132 342.065 8.428 342.281 8.828C342.505 9.228 342.617 9.732 342.617 10.34V14H341.765V10.424C341.765 9.76 341.597 9.26 341.261 8.924C340.933 8.58 340.469 8.408 339.869 8.408C339.421 8.408 339.029 8.5 338.693 8.684C338.365 8.86 338.109 9.12 337.925 9.464C337.749 9.8 337.661 10.208 337.661 10.688V14H336.809V7.7H337.625V9.428L337.493 9.104C337.693 8.648 338.013 8.292 338.453 8.036C338.893 7.772 339.417 7.64 340.025 7.64ZM346.421 14L343.625 7.7H344.513L347.081 13.544H346.661L349.265 7.7H350.105L347.297 14H346.421ZM350.979 14.06C350.803 14.06 350.651 13.996 350.523 13.868C350.403 13.74 350.343 13.584 350.343 13.4C350.343 13.208 350.403 13.052 350.523 12.932C350.651 12.812 350.803 12.752 350.979 12.752C351.155 12.752 351.303 12.812 351.423 12.932C351.551 13.052 351.615 13.208 351.615 13.4C351.615 13.584 351.551 13.74 351.423 13.868C351.303 13.996 351.155 14.06 350.979 14.06ZM356.759 14V5.6H357.491L361.331 12.152H360.947L364.751 5.6H365.483V14H364.631V6.932H364.835L361.331 12.932H360.911L357.383 6.932H357.611V14H356.759ZM368.04 14V7.7H368.892V14H368.04ZM368.472 6.308C368.296 6.308 368.148 6.248 368.028 6.128C367.908 6.008 367.848 5.864 367.848 5.696C367.848 5.528 367.908 5.388 368.028 5.276C368.148 5.156 368.296 5.096 368.472 5.096C368.648 5.096 368.796 5.152 368.916 5.264C369.036 5.376 369.096 5.516 369.096 5.684C369.096 5.86 369.036 6.008 368.916 6.128C368.804 6.248 368.656 6.308 368.472 6.308ZM374.478 7.64C374.99 7.64 375.438 7.74 375.822 7.94C376.214 8.132 376.518 8.428 376.734 8.828C376.958 9.228 377.07 9.732 377.07 10.34V14H376.218V10.424C376.218 9.76 376.05 9.26 375.714 8.924C375.386 8.58 374.922 8.408 374.322 8.408C373.874 8.408 373.482 8.5 373.146 8.684C372.818 8.86 372.562 9.12 372.378 9.464C372.202 9.8 372.114 10.208 372.114 10.688V14H371.262V7.7H372.078V9.428L371.946 9.104C372.146 8.648 372.466 8.292 372.906 8.036C373.346 7.772 373.87 7.64 374.478 7.64ZM378.904 11.12V10.376H382.048V11.12H378.904ZM385.379 14V6.368H382.427V5.6H389.219V6.368H386.267V14H385.379ZM394.054 14V12.608L394.018 12.38V10.052C394.018 9.516 393.866 9.104 393.562 8.816C393.266 8.528 392.822 8.384 392.23 8.384C391.822 8.384 391.434 8.452 391.066 8.588C390.698 8.724 390.386 8.904 390.13 9.128L389.746 8.492C390.066 8.22 390.45 8.012 390.898 7.868C391.346 7.716 391.818 7.64 392.314 7.64C393.13 7.64 393.758 7.844 394.198 8.252C394.646 8.652 394.87 9.264 394.87 10.088V14H394.054ZM391.882 14.06C391.41 14.06 390.998 13.984 390.646 13.832C390.302 13.672 390.038 13.456 389.854 13.184C389.67 12.904 389.578 12.584 389.578 12.224C389.578 11.896 389.654 11.6 389.806 11.336C389.966 11.064 390.222 10.848 390.574 10.688C390.934 10.52 391.414 10.436 392.014 10.436H394.186V11.072H392.038C391.43 11.072 391.006 11.18 390.766 11.396C390.534 11.612 390.418 11.88 390.418 12.2C390.418 12.56 390.558 12.848 390.838 13.064C391.118 13.28 391.51 13.388 392.014 13.388C392.494 13.388 392.906 13.28 393.25 13.064C393.602 12.84 393.858 12.52 394.018 12.104L394.21 12.692C394.05 13.108 393.77 13.44 393.37 13.688C392.978 13.936 392.482 14.06 391.882 14.06ZM397.184 14V7.7H398V9.416L397.916 9.116C398.092 8.636 398.388 8.272 398.804 8.024C399.22 7.768 399.736 7.64 400.352 7.64V8.468C400.32 8.468 400.288 8.468 400.256 8.468C400.224 8.46 400.192 8.456 400.16 8.456C399.496 8.456 398.976 8.66 398.6 9.068C398.224 9.468 398.036 10.04 398.036 10.784V14H397.184ZM404.536 16.388C403.96 16.388 403.408 16.304 402.88 16.136C402.352 15.968 401.924 15.728 401.596 15.416L402.028 14.768C402.324 15.032 402.688 15.24 403.12 15.392C403.56 15.552 404.024 15.632 404.512 15.632C405.312 15.632 405.9 15.444 406.276 15.068C406.652 14.7 406.84 14.124 406.84 13.34V11.768L406.96 10.688L406.876 9.608V7.7H407.692V13.232C407.692 14.32 407.424 15.116 406.888 15.62C406.36 16.132 405.576 16.388 404.536 16.388ZM404.38 13.76C403.78 13.76 403.24 13.632 402.76 13.376C402.28 13.112 401.9 12.748 401.62 12.284C401.348 11.82 401.212 11.288 401.212 10.688C401.212 10.088 401.348 9.56 401.62 9.104C401.9 8.64 402.28 8.28 402.76 8.024C403.24 7.768 403.78 7.64 404.38 7.64C404.94 7.64 405.444 7.756 405.892 7.988C406.34 8.22 406.696 8.564 406.96 9.02C407.224 9.476 407.356 10.032 407.356 10.688C407.356 11.344 407.224 11.9 406.96 12.356C406.696 12.812 406.34 13.16 405.892 13.4C405.444 13.64 404.94 13.76 404.38 13.76ZM404.464 13.004C404.928 13.004 405.34 12.908 405.7 12.716C406.06 12.516 406.344 12.244 406.552 11.9C406.76 11.548 406.864 11.144 406.864 10.688C406.864 10.232 406.76 9.832 406.552 9.488C406.344 9.144 406.06 8.876 405.7 8.684C405.34 8.484 404.928 8.384 404.464 8.384C404.008 8.384 403.596 8.484 403.228 8.684C402.868 8.876 402.584 9.144 402.376 9.488C402.176 9.832 402.076 10.232 402.076 10.688C402.076 11.144 402.176 11.548 402.376 11.9C402.584 12.244 402.868 12.516 403.228 12.716C403.596 12.908 404.008 13.004 404.464 13.004ZM412.739 14.06C412.083 14.06 411.507 13.924 411.011 13.652C410.515 13.372 410.127 12.992 409.847 12.512C409.567 12.024 409.427 11.468 409.427 10.844C409.427 10.22 409.559 9.668 409.823 9.188C410.095 8.708 410.463 8.332 410.927 8.06C411.399 7.78 411.927 7.64 412.511 7.64C413.103 7.64 413.627 7.776 414.083 8.048C414.547 8.312 414.911 8.688 415.175 9.176C415.439 9.656 415.571 10.212 415.571 10.844C415.571 10.884 415.567 10.928 415.559 10.976C415.559 11.016 415.559 11.06 415.559 11.108H410.075V10.472H415.103L414.767 10.724C414.767 10.268 414.667 9.864 414.467 9.512C414.275 9.152 414.011 8.872 413.675 8.672C413.339 8.472 412.951 8.372 412.511 8.372C412.079 8.372 411.691 8.472 411.347 8.672C411.003 8.872 410.735 9.152 410.543 9.512C410.351 9.872 410.255 10.284 410.255 10.748V10.88C410.255 11.36 410.359 11.784 410.567 12.152C410.783 12.512 411.079 12.796 411.455 13.004C411.839 13.204 412.275 13.304 412.763 13.304C413.147 13.304 413.503 13.236 413.831 13.1C414.167 12.964 414.455 12.756 414.695 12.476L415.175 13.028C414.895 13.364 414.543 13.62 414.119 13.796C413.703 13.972 413.243 14.06 412.739 14.06ZM419.297 14.06C418.705 14.06 418.249 13.9 417.929 13.58C417.609 13.26 417.449 12.808 417.449 12.224V6.308H418.301V12.176C418.301 12.544 418.393 12.828 418.577 13.028C418.769 13.228 419.041 13.328 419.393 13.328C419.769 13.328 420.081 13.22 420.329 13.004L420.629 13.616C420.461 13.768 420.257 13.88 420.017 13.952C419.785 14.024 419.545 14.06 419.297 14.06ZM416.321 8.408V7.7H420.221V8.408H416.321Z" fill="#1B1F25"/>
<rect x="311" y="4" width="13" height="13" fill="#FDD201"/>
<path d="M580.368 14V5.6H581.256V14H580.368ZM587.025 7.64C587.537 7.64 587.985 7.74 588.369 7.94C588.761 8.132 589.065 8.428 589.281 8.828C589.505 9.228 589.617 9.732 589.617 10.34V14H588.765V10.424C588.765 9.76 588.597 9.26 588.261 8.924C587.933 8.58 587.469 8.408 586.869 8.408C586.421 8.408 586.029 8.5 585.693 8.684C585.365 8.86 585.109 9.12 584.925 9.464C584.749 9.8 584.661 10.208 584.661 10.688V14H583.809V7.7H584.625V9.428L584.493 9.104C584.693 8.648 585.013 8.292 585.453 8.036C585.893 7.772 586.417 7.64 587.025 7.64ZM593.421 14L590.625 7.7H591.513L594.081 13.544H593.661L596.265 7.7H597.105L594.297 14H593.421ZM597.979 14.06C597.803 14.06 597.651 13.996 597.523 13.868C597.403 13.74 597.343 13.584 597.343 13.4C597.343 13.208 597.403 13.052 597.523 12.932C597.651 12.812 597.803 12.752 597.979 12.752C598.155 12.752 598.303 12.812 598.423 12.932C598.551 13.052 598.615 13.208 598.615 13.4C598.615 13.584 598.551 13.74 598.423 13.868C598.303 13.996 598.155 14.06 597.979 14.06ZM602.415 14L606.255 5.6H607.131L610.971 14H610.035L606.507 6.116H606.867L603.339 14H602.415ZM603.927 11.756L604.191 11.036H609.075L609.339 11.756H603.927ZM615.432 14.06C614.88 14.06 614.384 13.936 613.944 13.688C613.504 13.432 613.156 13.064 612.9 12.584C612.644 12.104 612.516 11.524 612.516 10.844C612.516 10.156 612.644 9.576 612.9 9.104C613.164 8.624 613.516 8.26 613.956 8.012C614.396 7.764 614.888 7.64 615.432 7.64C616.032 7.64 616.568 7.776 617.04 8.048C617.52 8.312 617.896 8.684 618.168 9.164C618.44 9.644 618.576 10.204 618.576 10.844C618.576 11.476 618.44 12.036 618.168 12.524C617.896 13.004 617.52 13.38 617.04 13.652C616.568 13.924 616.032 14.06 615.432 14.06ZM612.18 14V5.096H613.032V9.56L612.912 10.832L612.996 12.104V14H612.18ZM615.372 13.304C615.82 13.304 616.22 13.204 616.572 13.004C616.924 12.796 617.204 12.508 617.412 12.14C617.62 11.764 617.724 11.332 617.724 10.844C617.724 10.348 617.62 9.916 617.412 9.548C617.204 9.18 616.924 8.896 616.572 8.696C616.22 8.488 615.82 8.384 615.372 8.384C614.924 8.384 614.52 8.488 614.16 8.696C613.808 8.896 613.528 9.18 613.32 9.548C613.12 9.916 613.02 10.348 613.02 10.844C613.02 11.332 613.12 11.764 613.32 12.14C613.528 12.508 613.808 12.796 614.16 13.004C614.52 13.204 614.924 13.304 615.372 13.304ZM622.881 14.06C622.273 14.06 621.725 13.924 621.237 13.652C620.757 13.372 620.377 12.992 620.097 12.512C619.817 12.024 619.677 11.468 619.677 10.844C619.677 10.212 619.817 9.656 620.097 9.176C620.377 8.696 620.757 8.32 621.237 8.048C621.717 7.776 622.265 7.64 622.881 7.64C623.505 7.64 624.057 7.776 624.537 8.048C625.025 8.32 625.405 8.696 625.677 9.176C625.957 9.656 626.097 10.212 626.097 10.844C626.097 11.468 625.957 12.024 625.677 12.512C625.405 12.992 625.025 13.372 624.537 13.652C624.049 13.924 623.497 14.06 622.881 14.06ZM622.881 13.304C623.337 13.304 623.741 13.204 624.093 13.004C624.445 12.796 624.721 12.508 624.921 12.14C625.129 11.764 625.233 11.332 625.233 10.844C625.233 10.348 625.129 9.916 624.921 9.548C624.721 9.18 624.445 8.896 624.093 8.696C623.741 8.488 623.341 8.384 622.893 8.384C622.445 8.384 622.045 8.488 621.693 8.696C621.341 8.896 621.061 9.18 620.853 9.548C620.645 9.916 620.541 10.348 620.541 10.844C620.541 11.332 620.645 11.764 620.853 12.14C621.061 12.508 621.341 12.796 621.693 13.004C622.045 13.204 622.441 13.304 622.881 13.304ZM629.281 14L626.485 7.7H627.373L629.941 13.544H629.521L632.125 7.7H632.965L630.157 14H629.281ZM636.665 14.06C636.009 14.06 635.433 13.924 634.937 13.652C634.441 13.372 634.053 12.992 633.773 12.512C633.493 12.024 633.353 11.468 633.353 10.844C633.353 10.22 633.485 9.668 633.749 9.188C634.021 8.708 634.389 8.332 634.853 8.06C635.325 7.78 635.853 7.64 636.437 7.64C637.029 7.64 637.553 7.776 638.009 8.048C638.473 8.312 638.837 8.688 639.101 9.176C639.365 9.656 639.497 10.212 639.497 10.844C639.497 10.884 639.493 10.928 639.485 10.976C639.485 11.016 639.485 11.06 639.485 11.108H634.001V10.472H639.029L638.693 10.724C638.693 10.268 638.593 9.864 638.393 9.512C638.201 9.152 637.937 8.872 637.601 8.672C637.265 8.472 636.877 8.372 636.437 8.372C636.005 8.372 635.617 8.472 635.273 8.672C634.929 8.872 634.661 9.152 634.469 9.512C634.277 9.872 634.181 10.284 634.181 10.748V10.88C634.181 11.36 634.285 11.784 634.493 12.152C634.709 12.512 635.005 12.796 635.381 13.004C635.765 13.204 636.201 13.304 636.689 13.304C637.073 13.304 637.429 13.236 637.757 13.1C638.093 12.964 638.381 12.756 638.621 12.476L639.101 13.028C638.821 13.364 638.469 13.62 638.045 13.796C637.629 13.972 637.169 14.06 636.665 14.06ZM640.88 11.12V10.376H644.024V11.12H640.88ZM646.11 14V5.6H646.842L650.682 12.152H650.298L654.102 5.6H654.834V14H653.982V6.932H654.186L650.682 12.932H650.262L646.734 6.932H646.962V14H646.11ZM661.339 14V12.608L661.303 12.38V10.052C661.303 9.516 661.151 9.104 660.847 8.816C660.551 8.528 660.107 8.384 659.515 8.384C659.107 8.384 658.719 8.452 658.351 8.588C657.983 8.724 657.671 8.904 657.415 9.128L657.031 8.492C657.351 8.22 657.735 8.012 658.183 7.868C658.631 7.716 659.103 7.64 659.599 7.64C660.415 7.64 661.043 7.844 661.483 8.252C661.931 8.652 662.155 9.264 662.155 10.088V14H661.339ZM659.167 14.06C658.695 14.06 658.283 13.984 657.931 13.832C657.587 13.672 657.323 13.456 657.139 13.184C656.955 12.904 656.863 12.584 656.863 12.224C656.863 11.896 656.939 11.6 657.091 11.336C657.251 11.064 657.507 10.848 657.859 10.688C658.219 10.52 658.699 10.436 659.299 10.436H661.471V11.072H659.323C658.715 11.072 658.291 11.18 658.051 11.396C657.819 11.612 657.703 11.88 657.703 12.2C657.703 12.56 657.843 12.848 658.123 13.064C658.403 13.28 658.795 13.388 659.299 13.388C659.779 13.388 660.191 13.28 660.535 13.064C660.887 12.84 661.143 12.52 661.303 12.104L661.495 12.692C661.335 13.108 661.055 13.44 660.655 13.688C660.263 13.936 659.767 14.06 659.167 14.06ZM663.509 14L666.173 10.544L666.161 10.964L663.629 7.7H664.589L666.665 10.4L666.305 10.388L668.381 7.7H669.317L666.761 11L666.773 10.544L669.461 14H668.489L666.293 11.12L666.629 11.168L664.469 14H663.509Z" fill="#1B1F25"/>
<rect x="558" y="4" width="13" height="13" fill="#0586EC"/>
<path d="M455.368 14V5.6H456.256V14H455.368ZM462.025 7.64C462.537 7.64 462.985 7.74 463.369 7.94C463.761 8.132 464.065 8.428 464.281 8.828C464.505 9.228 464.617 9.732 464.617 10.34V14H463.765V10.424C463.765 9.76 463.597 9.26 463.261 8.924C462.933 8.58 462.469 8.408 461.869 8.408C461.421 8.408 461.029 8.5 460.693 8.684C460.365 8.86 460.109 9.12 459.925 9.464C459.749 9.8 459.661 10.208 459.661 10.688V14H458.809V7.7H459.625V9.428L459.493 9.104C459.693 8.648 460.013 8.292 460.453 8.036C460.893 7.772 461.417 7.64 462.025 7.64ZM468.421 14L465.625 7.7H466.513L469.081 13.544H468.661L471.265 7.7H472.105L469.297 14H468.421ZM472.979 14.06C472.803 14.06 472.651 13.996 472.523 13.868C472.403 13.74 472.343 13.584 472.343 13.4C472.343 13.208 472.403 13.052 472.523 12.932C472.651 12.812 472.803 12.752 472.979 12.752C473.155 12.752 473.303 12.812 473.423 12.932C473.551 13.052 473.615 13.208 473.615 13.4C473.615 13.584 473.551 13.74 473.423 13.868C473.303 13.996 473.155 14.06 472.979 14.06ZM480.391 14V6.368H477.439V5.6H484.231V6.368H481.279V14H480.391ZM489.066 14V12.608L489.03 12.38V10.052C489.03 9.516 488.878 9.104 488.574 8.816C488.278 8.528 487.834 8.384 487.242 8.384C486.834 8.384 486.446 8.452 486.078 8.588C485.71 8.724 485.398 8.904 485.142 9.128L484.758 8.492C485.078 8.22 485.462 8.012 485.91 7.868C486.358 7.716 486.83 7.64 487.326 7.64C488.142 7.64 488.77 7.844 489.21 8.252C489.658 8.652 489.882 9.264 489.882 10.088V14H489.066ZM486.894 14.06C486.422 14.06 486.01 13.984 485.658 13.832C485.314 13.672 485.05 13.456 484.866 13.184C484.682 12.904 484.59 12.584 484.59 12.224C484.59 11.896 484.666 11.6 484.818 11.336C484.978 11.064 485.234 10.848 485.586 10.688C485.946 10.52 486.426 10.436 487.026 10.436H489.198V11.072H487.05C486.442 11.072 486.018 11.18 485.778 11.396C485.546 11.612 485.43 11.88 485.43 12.2C485.43 12.56 485.57 12.848 485.85 13.064C486.13 13.28 486.522 13.388 487.026 13.388C487.506 13.388 487.918 13.28 488.262 13.064C488.614 12.84 488.87 12.52 489.03 12.104L489.222 12.692C489.062 13.108 488.782 13.44 488.382 13.688C487.99 13.936 487.494 14.06 486.894 14.06ZM492.196 14V7.7H493.012V9.416L492.928 9.116C493.104 8.636 493.4 8.272 493.816 8.024C494.232 7.768 494.748 7.64 495.364 7.64V8.468C495.332 8.468 495.3 8.468 495.268 8.468C495.236 8.46 495.204 8.456 495.172 8.456C494.508 8.456 493.988 8.66 493.612 9.068C493.236 9.468 493.048 10.04 493.048 10.784V14H492.196ZM499.548 16.388C498.972 16.388 498.42 16.304 497.892 16.136C497.364 15.968 496.936 15.728 496.608 15.416L497.04 14.768C497.336 15.032 497.7 15.24 498.132 15.392C498.572 15.552 499.036 15.632 499.524 15.632C500.324 15.632 500.912 15.444 501.288 15.068C501.664 14.7 501.852 14.124 501.852 13.34V11.768L501.972 10.688L501.888 9.608V7.7H502.704V13.232C502.704 14.32 502.436 15.116 501.9 15.62C501.372 16.132 500.588 16.388 499.548 16.388ZM499.392 13.76C498.792 13.76 498.252 13.632 497.772 13.376C497.292 13.112 496.912 12.748 496.632 12.284C496.36 11.82 496.224 11.288 496.224 10.688C496.224 10.088 496.36 9.56 496.632 9.104C496.912 8.64 497.292 8.28 497.772 8.024C498.252 7.768 498.792 7.64 499.392 7.64C499.952 7.64 500.456 7.756 500.904 7.988C501.352 8.22 501.708 8.564 501.972 9.02C502.236 9.476 502.368 10.032 502.368 10.688C502.368 11.344 502.236 11.9 501.972 12.356C501.708 12.812 501.352 13.16 500.904 13.4C500.456 13.64 499.952 13.76 499.392 13.76ZM499.476 13.004C499.94 13.004 500.352 12.908 500.712 12.716C501.072 12.516 501.356 12.244 501.564 11.9C501.772 11.548 501.876 11.144 501.876 10.688C501.876 10.232 501.772 9.832 501.564 9.488C501.356 9.144 501.072 8.876 500.712 8.684C500.352 8.484 499.94 8.384 499.476 8.384C499.02 8.384 498.608 8.484 498.24 8.684C497.88 8.876 497.596 9.144 497.388 9.488C497.188 9.832 497.088 10.232 497.088 10.688C497.088 11.144 497.188 11.548 497.388 11.9C497.596 12.244 497.88 12.516 498.24 12.716C498.608 12.908 499.02 13.004 499.476 13.004ZM507.751 14.06C507.095 14.06 506.519 13.924 506.023 13.652C505.527 13.372 505.139 12.992 504.859 12.512C504.579 12.024 504.439 11.468 504.439 10.844C504.439 10.22 504.571 9.668 504.835 9.188C505.107 8.708 505.475 8.332 505.939 8.06C506.411 7.78 506.939 7.64 507.523 7.64C508.115 7.64 508.639 7.776 509.095 8.048C509.559 8.312 509.923 8.688 510.187 9.176C510.451 9.656 510.583 10.212 510.583 10.844C510.583 10.884 510.579 10.928 510.571 10.976C510.571 11.016 510.571 11.06 510.571 11.108H505.087V10.472H510.115L509.779 10.724C509.779 10.268 509.679 9.864 509.479 9.512C509.287 9.152 509.023 8.872 508.687 8.672C508.351 8.472 507.963 8.372 507.523 8.372C507.091 8.372 506.703 8.472 506.359 8.672C506.015 8.872 505.747 9.152 505.555 9.512C505.363 9.872 505.267 10.284 505.267 10.748V10.88C505.267 11.36 505.371 11.784 505.579 12.152C505.795 12.512 506.091 12.796 506.467 13.004C506.851 13.204 507.287 13.304 507.775 13.304C508.159 13.304 508.515 13.236 508.843 13.1C509.179 12.964 509.467 12.756 509.707 12.476L510.187 13.028C509.907 13.364 509.555 13.62 509.131 13.796C508.715 13.972 508.255 14.06 507.751 14.06ZM514.309 14.06C513.717 14.06 513.261 13.9 512.941 13.58C512.621 13.26 512.461 12.808 512.461 12.224V6.308H513.313V12.176C513.313 12.544 513.405 12.828 513.589 13.028C513.781 13.228 514.053 13.328 514.405 13.328C514.781 13.328 515.093 13.22 515.341 13.004L515.641 13.616C515.473 13.768 515.269 13.88 515.029 13.952C514.797 14.024 514.557 14.06 514.309 14.06ZM511.333 8.408V7.7H515.233V8.408H511.333ZM516.607 11.12V10.376H519.751V11.12H516.607ZM521.837 14V5.6H522.569L526.409 12.152H526.025L529.829 5.6H530.561V14H529.709V6.932H529.913L526.409 12.932H525.989L522.461 6.932H522.689V14H521.837ZM537.066 14V12.608L537.03 12.38V10.052C537.03 9.516 536.878 9.104 536.574 8.816C536.278 8.528 535.834 8.384 535.242 8.384C534.834 8.384 534.446 8.452 534.078 8.588C533.71 8.724 533.398 8.904 533.142 9.128L532.758 8.492C533.078 8.22 533.462 8.012 533.91 7.868C534.358 7.716 534.83 7.64 535.326 7.64C536.142 7.64 536.77 7.844 537.21 8.252C537.658 8.652 537.882 9.264 537.882 10.088V14H537.066ZM534.894 14.06C534.422 14.06 534.01 13.984 533.658 13.832C533.314 13.672 533.05 13.456 532.866 13.184C532.682 12.904 532.59 12.584 532.59 12.224C532.59 11.896 532.666 11.6 532.818 11.336C532.978 11.064 533.234 10.848 533.586 10.688C533.946 10.52 534.426 10.436 535.026 10.436H537.198V11.072H535.05C534.442 11.072 534.018 11.18 533.778 11.396C533.546 11.612 533.43 11.88 533.43 12.2C533.43 12.56 533.57 12.848 533.85 13.064C534.13 13.28 534.522 13.388 535.026 13.388C535.506 13.388 535.918 13.28 536.262 13.064C536.614 12.84 536.87 12.52 537.03 12.104L537.222 12.692C537.062 13.108 536.782 13.44 536.382 13.688C535.99 13.936 535.494 14.06 534.894 14.06ZM539.236 14L541.9 10.544L541.888 10.964L539.356 7.7H540.316L542.392 10.4L542.032 10.388L544.108 7.7H545.044L542.488 11L542.5 10.544L545.188 14H544.216L542.02 11.12L542.356 11.168L540.196 14H539.236Z" fill="#1B1F25"/>
<rect x="433" y="4" width="13" height="13" fill="#07DA01"/>
</svg>
